<?xml version="1.0" encoding="UTF-8" standalone="no"?>
<!-- Created with Inkscape (http://www.inkscape.org/) -->

<svg
   xmlns:dc="http://purl.org/dc/elements/1.1/"
   xmlns:cc="http://creativecommons.org/ns#"
   xmlns:rdf="http://www.w3.org/1999/02/22-rdf-syntax-ns#"
   xmlns:svg="http://www.w3.org/2000/svg"
   xmlns="http://www.w3.org/2000/svg"
   xmlns:sodipodi="http://sodipodi.sourceforge.net/DTD/sodipodi-0.dtd"
   xmlns:inkscape="http://www.inkscape.org/namespaces/inkscape"
   version="1.1"
   id="svg2"
   xml:space="preserve"
   width="330.42398"
   height="482.85733"
   viewBox="0 0 330.42397 482.85731"
   sodipodi:docname="card.svg"
   inkscape:version="0.92.5 (2060ec1f9f, 2020-04-08)"><metadata
     id="metadata8"><rdf:RDF><cc:Work
         rdf:about=""><dc:format>image/svg+xml</dc:format><dc:type
           rdf:resource="http://purl.org/dc/dcmitype/StillImage" /><dc:title></dc:title></cc:Work></rdf:RDF></metadata><defs
     id="defs6"><clipPath
       clipPathUnits="userSpaceOnUse"
       id="clipPath18"><path
         d="M 0,980 H 1400 V 0 H 0 Z"
         id="path16"
         inkscape:connector-curvature="0" /></clipPath></defs><sodipodi:namedview
     pagecolor="#ffffff"
     bordercolor="#666666"
     borderopacity="1"
     objecttolerance="10"
     gridtolerance="10"
     guidetolerance="10"
     inkscape:pageopacity="0"
     inkscape:pageshadow="2"
     inkscape:window-width="1366"
     inkscape:window-height="704"
     id="namedview4"
     showgrid="false"
     fit-margin-top="8.2"
     fit-margin-left="8.2"
     fit-margin-right="8.2"
     fit-margin-bottom="8.2"
     units="px"
     inkscape:zoom="1.0686386"
     inkscape:cx="385.11795"
     inkscape:cy="241.42867"
     inkscape:window-x="0"
     inkscape:window-y="0"
     inkscape:window-maximized="1"
     inkscape:current-layer="g10" /><g
     id="g10"
     inkscape:groupmode="layer"
     inkscape:label="playing card back"
     transform="matrix(1.3333333,0,0,-1.3333333,-65.464531,1180.789)"><g
       id="g20"
       transform="translate(68.5704,874.6362)"><path
         d="m 0,0 h 208.874 c 4.687,0 8.516,-3.83 8.516,-8.516 v -323.201 c 0,-4.686 -3.829,-8.517 -8.516,-8.517 H 0 c -4.685,0 -8.516,3.831 -8.516,8.517 V -8.516 C -8.516,-3.83 -4.685,0 0,0"
         style="fill:#ffffff;fill-opacity:1;fill-rule:evenodd;stroke:none"
         id="path22"
         inkscape:connector-curvature="0" /></g><g
       id="g24"
       transform="translate(283.2717,872.3183)"><path
         d="m 0,0 c 1.653,-1.557 2.689,-3.761 2.689,-6.198 v -323.201 c 0,-4.686 -3.829,-8.517 -8.517,-8.517 h -208.873 c -2.607,0 -4.95,1.188 -6.517,3.048 z"
         style="fill:#e7e8e9;fill-opacity:1;fill-rule:evenodd;stroke:none"
         id="path26"
         inkscape:connector-curvature="0" /></g><g
       id="g28"
       transform="translate(84.5627,857.5493)"><path
         d="m 0,0 h 176.887 c 4.085,0 7.424,-3.337 7.424,-7.424 v -291.211 c 0,-4.085 -3.339,-7.424 -7.424,-7.424 H 0 c -4.084,0 -7.421,3.339 -7.421,7.424 V -7.424 C -7.421,-3.338 -4.083,0 0,0"
         style="fill:#ffffff;fill-opacity:1;fill-rule:evenodd;stroke:none"
         id="path30"
         inkscape:connector-curvature="0" /></g><g
       id="g32"
       transform="translate(84.5627,857.5493)"><path
         d="m 0,0 h 176.887 c 4.085,0 7.424,-3.337 7.424,-7.424 v -291.211 c 0,-4.085 -3.339,-7.424 -7.424,-7.424 H 0 c -4.084,0 -7.421,3.339 -7.421,7.424 V -7.424 C -7.421,-3.338 -4.083,0 0,0"
         style="fill:#be2026;fill-opacity:1;fill-rule:evenodd;stroke:none"
         id="path34"
         inkscape:connector-curvature="0" /></g><g
       id="g36"
       transform="translate(268.8628,850.5081)"><path
         d="m 0,0 c 0.008,-0.126 0.01,-0.253 0.01,-0.382 v -291.212 c 0,-4.085 -3.338,-7.424 -7.423,-7.424 H -184.3 c -4.085,0 -7.421,3.339 -7.421,7.424 v 1.373 z"
         style="fill:#ac1e23;fill-opacity:1;fill-rule:evenodd;stroke:none"
         id="path38"
         inkscape:connector-curvature="0" /></g><g
       id="g40"
       transform="translate(269.5589,560.0296)"><path
         d="m 0,0 v -1.116 c 0,-4.464 -3.646,-8.11 -8.109,-8.11 h -1.116 z m 0,19.884 v -8.74 l -20.368,-20.37 h -8.74 z M 0,39.768 V 31.029 L -40.253,-9.226 h -8.74 z M 0,59.652 V 50.915 L -60.139,-9.226 h -8.738 z M 0,79.538 V 70.8 L -80.024,-9.226 h -8.738 z M 0,99.422 V 90.683 L -99.908,-9.226 h -8.737 z m 0,19.885 v -8.739 L -119.793,-9.226 h -8.738 z m 0,19.885 v -8.74 L -139.676,-9.226 h -8.74 z m 0,19.883 v -8.74 L -159.561,-9.226 h -8.739 z m 0,19.885 v -8.74 L -179.445,-9.226 h -5.551 c -0.953,0 -1.868,0.168 -2.718,0.471 z m 0,19.886 v -8.74 L -192.922,-2.816 c -0.118,0.548 -0.181,1.117 -0.181,1.7 v 6.857 z m 0,19.885 v -8.74 L -193.103,16.886 v 8.74 z m 0,19.884 v -8.74 L -193.103,36.771 v 8.74 z m 0,19.883 v -8.739 L -193.103,56.655 v 8.74 z m 0,19.885 v -8.739 L -193.103,76.54 v 8.74 z m -2.411,17.474 C -0.925,294.383 0,292.345 0,290.096 v -0.568 L -193.103,96.424 v 8.74 z m -17.536,2.348 h 8.74 L -193.103,116.309 v 8.74 z m -19.885,0 h 8.74 l -162.011,-162.01 v 8.739 z m -19.883,0 h 8.739 L -193.103,156.08 v 8.737 z m -19.884,0 h 8.739 L -193.103,175.963 v 8.74 z m -19.885,0 h 8.738 L -193.103,195.848 v 8.739 z m -19.886,0 h 8.739 l -82.472,-82.472 v 8.739 z m -19.883,0 h 8.739 l -62.589,-62.59 v 8.74 z m -19.885,0 h 8.74 L -193.103,255.5 v 8.74 z m -19.885,0 h 8.739 l -22.819,-22.819 v 8.739 z"
         style="fill:#000000;fill-opacity:1;fill-rule:evenodd;stroke:none"
         id="path42"
         inkscape:connector-curvature="0" /></g><g
       id="g44"
       transform="translate(68.5704,873.2628)"><path
         d="m 0,0 h 208.874 c 3.928,0 7.142,-3.215 7.142,-7.143 v -323.2 c 0,-3.928 -3.214,-7.144 -7.142,-7.144 H 0 c -3.928,0 -7.143,3.216 -7.143,7.144 v 323.2 C -7.143,-3.215 -3.928,0 0,0 m 0.001,6.179 h 208.872 c 7.329,0 13.323,-5.995 13.323,-13.323 v -323.199 c 0,-7.328 -5.994,-13.321 -13.323,-13.321 H 0.001 c -7.328,0 -13.323,5.993 -13.323,13.321 V -7.144 c 0,7.328 5.995,13.323 13.323,13.323"
         style="fill:#000000;fill-opacity:1;fill-rule:evenodd;stroke:none"
         id="path46"
         inkscape:connector-curvature="0" /></g><g
       id="g48"
       transform="translate(84.5627,856.1769)"><path
         d="m 0,0 h 176.887 c 3.329,0 6.051,-2.722 6.051,-6.051 v -291.212 c 0,-3.328 -2.722,-6.05 -6.051,-6.05 H 0 c -3.326,0 -6.049,2.722 -6.049,6.05 V -6.051 C -6.049,-2.722 -3.326,0 0,0 m 0.002,6.177 h 176.885 c 6.726,0 12.23,-5.501 12.23,-12.228 v -291.212 c 0,-6.727 -5.504,-12.23 -12.23,-12.23 H 0.002 c -6.726,0 -12.228,5.503 -12.228,12.23 V -6.051 c 0,6.727 5.502,12.228 12.228,12.228"
         style="fill:#000000;fill-opacity:1;fill-rule:evenodd;stroke:none"
         id="path50"
         inkscape:connector-curvature="0" /></g></g></svg>