<?xml version="1.0" encoding="UTF-8" standalone="no"?>
<svg
   xmlns="http://www.w3.org/2000/svg"
   width="330.42"
   height="482.86"
   version="1.1"
   viewBox="0 0 330.42397 482.85731">
  <g
     transform="matrix(1.3333,0,0,-1.3333,25.959381,14.642488)">
    <path
       style="fill:#ffffff;fill-rule:evenodd"
       d="m 0,0 h 208.87 c 4.687,0 8.516,-3.83 8.516,-8.516 v -323.2 c 0,-4.686 -3.829,-8.517 -8.516,-8.517 H 0 c -4.685,0 -8.516,3.831 -8.516,8.517 v 323.2 C -8.516,-3.83 -4.685,0 0,0" />
  </g>
  <g
     transform="matrix(1.3333,0,0,-1.3333,312.21889,17.735744)">
    <path
       style="fill:#e7e8e9;fill-rule:evenodd"
       d="m 0,0 c 1.653,-1.557 2.689,-3.761 2.689,-6.198 v -323.2 c 0,-4.686 -3.829,-8.517 -8.517,-8.517 h -208.87 c -2.607,0 -4.95,1.188 -6.517,3.048 z" />
  </g>
  <path
     d="M 25.959381,16.482442 H 304.44575 c 5.2372,0 9.52243,4.286559 9.52243,9.523762 V 456.92876 c 0,5.23721 -4.28523,9.5251 -9.52243,9.5251 H 25.959381 c -5.237202,0 -9.523762,-4.28789 -9.523762,-9.5251 V 26.006204 c 0,-5.237203 4.28656,-9.523762 9.523762,-9.523762 m 0.0013,-8.2384607 H 304.44709 c 9.77175,0 17.76355,7.9931337 17.76355,17.7635557 V 456.9301 c 0,9.77042 -7.9918,17.76089 -17.76355,17.76089 H 25.960714 c -9.770422,0 -17.7635556,-7.99047 -17.7635556,-17.76089 V 26.007537 c 0,-9.770422 7.9931336,-17.7635557 17.7635556,-17.7635557"
     style="fill-rule:evenodd;stroke-width:1.33329999" />
  <g
     transform="matrix(1.3333,0,0,-1.3333,47.282848,39.255206)">
    <path
       style="fill-rule:evenodd"
       d="m 0,0 h 176.89 c 3.329,0 6.051,-2.722 6.051,-6.051 v -291.21 c 0,-3.328 -2.722,-6.05 -6.051,-6.05 H 0 c -3.326,0 -6.049,2.722 -6.049,6.05 V -6.051 C -6.049,-2.722 -3.326,0 0,0 m 0.002,6.177 h 176.88 c 6.726,0 12.23,-5.501 12.23,-12.228 v -291.21 c 0,-6.727 -5.504,-12.23 -12.23,-12.23 H 0.002 c -6.726,0 -12.228,5.503 -12.228,12.23 v 291.21 c 0,6.727 5.502,12.228 12.228,12.228" />
  </g>
</svg>
