<?xml version="1.0" encoding="UTF-8"?>
<svg width="330.42" height="482.86" version="1.1" viewBox="0 0 330.42397 482.85731"
	xmlns="http://www.w3.org/2000/svg">
	<g transform="matrix(1.3333 0 0 -1.3333 -65.465 1180.8)">
		<g transform="translate(68.57 874.64)">
			<path d="m0 0h208.87c4.687 0 8.516-3.83 8.516-8.516v-323.2c0-4.686-3.829-8.517-8.516-8.517h-208.87c-4.685 0-8.516 3.831-8.516 8.517v323.2c0 4.686 3.831 8.516 8.516 8.516" fill="#fff" fill-rule="evenodd"/>
		</g>
		<g transform="translate(283.27 872.32)">
			<path d="m0 0c1.653-1.557 2.689-3.761 2.689-6.198v-323.2c0-4.686-3.829-8.517-8.517-8.517h-208.87c-2.607 0-4.95 1.188-6.517 3.048z" fill="#e7e8e9" fill-rule="evenodd"/>
		</g>
		<g transform="translate(84.563 857.55)">
			<path d="m0 0h176.89c4.085 0 7.424-3.337 7.424-7.424v-291.21c0-4.085-3.339-7.424-7.424-7.424h-176.89c-4.084 0-7.421 3.339-7.421 7.424v291.21c0 4.086 3.338 7.424 7.421 7.424" fill="#fff" fill-rule="evenodd"/>
		</g>
		<g transform="translate(84.563 857.55)">
			<path d="m0 0h176.89c4.085 0 7.424-3.337 7.424-7.424v-291.21c0-4.085-3.339-7.424-7.424-7.424h-176.89c-4.084 0-7.421 3.339-7.421 7.424v291.21c0 4.086 3.338 7.424 7.421 7.424" fill="#be2026" fill-rule="evenodd"/>
		</g>
		<g transform="translate(268.86 850.51)">
			<path d="m0 0c8e-3 -0.126 0.01-0.253 0.01-0.382v-291.21c0-4.085-3.338-7.424-7.423-7.424h-176.89c-4.085 0-7.421 3.339-7.421 7.424v1.373z" fill="#ac1e23" fill-rule="evenodd"/>
		</g>
		<g transform="translate(269.56 560.03)">
			<path d="m0 0v-1.116c0-4.464-3.646-8.11-8.109-8.11h-1.116zm0 19.884v-8.74l-20.368-20.37h-8.74zm0 19.884v-8.739l-40.253-40.255h-8.74zm0 19.884v-8.737l-60.139-60.141h-8.738zm0 19.886v-8.738l-80.024-80.026h-8.738zm0 19.884v-8.739l-99.908-99.909h-8.737zm0 19.885v-8.739l-119.79-119.79h-8.738zm0 19.885v-8.74l-139.68-139.68h-8.74zm0 19.883v-8.74l-159.56-159.56h-8.739zm0 19.885v-8.74l-179.44-179.45h-5.551c-0.953 0-1.868 0.168-2.718 0.471zm0 19.886v-8.74l-192.92-192.92c-0.118 0.548-0.181 1.117-0.181 1.7v6.857zm0 19.885v-8.74l-193.1-193.1v8.74zm0 19.884v-8.74l-193.1-193.1v8.74zm0 19.883v-8.739l-193.1-193.1v8.74zm0 19.885v-8.739l-193.1-193.1v8.74zm-2.411 17.474c1.486-1.474 2.411-3.512 2.411-5.761v-0.568l-193.1-193.1v8.74zm-17.536 2.348h8.74l-181.9-181.9v8.74zm-19.885 0h8.74l-162.01-162.01v8.739zm-19.883 0h8.739l-142.13-142.12v8.737zm-19.884 0h8.739l-122.24-122.24v8.74zm-19.885 0h8.738l-102.36-102.36v8.739zm-19.886 0h8.739l-82.472-82.472v8.739zm-19.883 0h8.739l-62.589-62.59v8.74zm-19.885 0h8.74l-42.705-42.705v8.74zm-19.885 0h8.739l-22.819-22.819v8.739z" fill-rule="evenodd"/>
		</g>
		<g transform="translate(68.57 873.26)">
			<path d="m0 0h208.87c3.928 0 7.142-3.215 7.142-7.143v-323.2c0-3.928-3.214-7.144-7.142-7.144h-208.87c-3.928 0-7.143 3.216-7.143 7.144v323.2c0 3.928 3.215 7.143 7.143 7.143m1e-3 6.179h208.87c7.329 0 13.323-5.995 13.323-13.323v-323.2c0-7.328-5.994-13.321-13.323-13.321h-208.87c-7.328 0-13.323 5.993-13.323 13.321v323.2c0 7.328 5.995 13.323 13.323 13.323" fill-rule="evenodd"/>
		</g>
		<g transform="translate(84.563 856.18)">
			<path d="m0 0h176.89c3.329 0 6.051-2.722 6.051-6.051v-291.21c0-3.328-2.722-6.05-6.051-6.05h-176.89c-3.326 0-6.049 2.722-6.049 6.05v291.21c0 3.329 2.723 6.051 6.049 6.051m2e-3 6.177h176.88c6.726 0 12.23-5.501 12.23-12.228v-291.21c0-6.727-5.504-12.23-12.23-12.23h-176.88c-6.726 0-12.228 5.503-12.228 12.23v291.21c0 6.727 5.502 12.228 12.228 12.228" fill-rule="evenodd"/>
		</g>
	</g>
</svg>
